<?xml version="1.0" encoding="utf-8"?>
<!-- Generator: Adobe Illustrator 16.0.0, SVG Export Plug-In . SVG Version: 6.00 Build 0)  -->
<!DOCTYPE svg PUBLIC "-//W3C//DTD SVG 1.1//EN" "http://www.w3.org/Graphics/SVG/1.1/DTD/svg11.dtd">
<svg version="1.1" id="Layer_1" xmlns="http://www.w3.org/2000/svg" xmlns:xlink="http://www.w3.org/1999/xlink" x="0px" y="0px"
	 width="93px" height="21.195px" viewBox="-45.333 181.075 93 21.195" enable-background="new -45.333 181.075 93 21.195"
	 xml:space="preserve">
<path fill="#00B5FC" d="M-15.73,186.021c0-1.466,0.46-2.637,1.382-3.511c0.921-0.874,2.284-1.311,4.088-1.311
	c1.805,0,3.172,0.437,4.103,1.311c0.93,0.874,1.396,2.045,1.396,3.511v11.42c0,1.467-0.465,2.637-1.396,3.511
	c-0.931,0.874-2.298,1.311-4.103,1.311c-1.805,0-3.167-0.437-4.088-1.311c-0.921-0.874-1.382-2.044-1.382-3.511V186.021z
	 M-8.146,186.19c0-1.277-0.7-1.917-2.101-1.917s-2.101,0.64-2.101,1.917v11.082c0,1.278,0.7,1.917,2.101,1.917
	s2.101-0.639,2.101-1.917V186.19z"/>
<path fill="#00B5FC" d="M7.792,197.498v-7.727c0-1.391,0.418-2.485,1.255-3.284c0.836-0.799,2.101-1.199,3.792-1.199
	s2.937,0.4,3.736,1.199s1.199,1.894,1.199,3.284v5.414h-6.683v2.059c0,0.677,0.197,1.166,0.592,1.466
	c0.395,0.302,1.146,0.451,2.255,0.451c1.109,0,2.246-0.178,3.412-0.535v3.017c-1.166,0.339-2.463,0.508-3.891,0.508
	C9.681,202.15,7.792,200.6,7.792,197.498z M11.091,192.535h3.524V189.8c0-1.108-0.588-1.663-1.762-1.663
	c-1.175,0-1.762,0.555-1.762,1.663V192.535z"/>
<path fill="#00B5FC" d="M25.685,185.485h0.563v3.158h-0.761c-0.978,0-1.917,0.282-2.82,0.846v12.492h-3.412V185.57h3.214v1.156
	c0.545-0.357,0.921-0.592,1.128-0.705C24.219,185.665,24.914,185.485,25.685,185.485z"/>
<path fill="#00B5FC" d="M3.997,185.57l-1.156,6.034c-0.039,0.212-0.074,0.42-0.11,0.629l-0.955,4.976l-0.968-5.046
	c-0.037-0.204-0.07-0.411-0.109-0.614l-1.184-5.979h-3.412l3.581,16.411h4.145l3.524-16.411H3.997z"/>
<g>
	
		<linearGradient id="SVGID_1_" gradientUnits="userSpaceOnUse" x1="-71.7695" y1="191.6729" x2="-47.8804" y2="191.6729" gradientTransform="matrix(-1 0 0 -1 -89.4209 383.3457)">
		<stop  offset="0" style="stop-color:#0FDFEF"/>
		<stop  offset="1" style="stop-color:#07B9EF"/>
	</linearGradient>
	<path fill="url(#SVGID_1_)" d="M-40.382,181.075h13.273c2.843,0,5.159,0.922,6.882,2.74c1.708,1.798,2.575,4.434,2.575,7.833
		c0,3.396-0.865,6.039-2.571,7.854c-1.724,1.836-4.041,2.768-6.886,2.768h-7.771c-0.64,0-1.159-0.519-1.159-1.158
		s0.519-1.158,1.159-1.158h7.771c2.211,0,3.911-0.666,5.198-2.037c1.29-1.372,1.943-3.48,1.943-6.269
		c0-2.785-0.653-4.885-1.939-6.239c-1.288-1.357-2.989-2.018-5.202-2.018h-13.273c-0.64,0-1.158-0.519-1.158-1.158
		S-41.022,181.075-40.382,181.075z"/>
</g>
<g>
	
		<linearGradient id="SVGID_2_" gradientUnits="userSpaceOnUse" x1="-68.1001" y1="191.6738" x2="-44.0874" y2="191.6738" gradientTransform="matrix(-1 0 0 -1 -89.4209 383.3457)">
		<stop  offset="0" style="stop-color:#0FDFEF"/>
		<stop  offset="1" style="stop-color:#07B9EF"/>
	</linearGradient>
	<path fill="url(#SVGID_2_)" d="M-35.777,184.621h8.118c1.899,0,3.451,0.622,4.612,1.847c1.146,1.207,1.727,2.953,1.727,5.19
		c0,2.234-0.58,3.984-1.723,5.201c-1.161,1.237-2.714,1.864-4.616,1.864h-16.516c-0.64,0-1.158-0.519-1.158-1.158
		s0.519-1.158,1.158-1.158h16.516c1.253,0,2.211-0.371,2.927-1.134c0.727-0.773,1.095-1.99,1.095-3.615
		c0-1.624-0.367-2.834-1.091-3.596c-0.717-0.757-1.676-1.124-2.932-1.124h-8.118c-0.64,0-1.159-0.519-1.159-1.158
		S-36.417,184.621-35.777,184.621z"/>
</g>
<g>
	
		<linearGradient id="SVGID_3_" gradientUnits="userSpaceOnUse" x1="-64.4312" y1="191.6729" x2="-51.2988" y2="191.6729" gradientTransform="matrix(-1 0 0 -1 -89.4209 383.3457)">
		<stop  offset="0" style="stop-color:#0FDFEF"/>
		<stop  offset="1" style="stop-color:#07B9EF"/>
	</linearGradient>
	<path fill="url(#SVGID_3_)" d="M-31.751,188.169h3.541c0.941,0,1.75,0.329,2.342,0.951c0.583,0.613,0.879,1.471,0.879,2.547
		c0,1.073-0.295,1.931-0.875,2.549c-0.59,0.629-1.401,0.961-2.346,0.961h-8.752c-0.64,0-1.159-0.519-1.159-1.158
		s0.519-1.158,1.159-1.158h8.752c0.39,0,0.556-0.123,0.657-0.23c0.205-0.218,0.248-0.645,0.248-0.963
		c0-0.317-0.042-0.741-0.243-0.951c-0.102-0.107-0.269-0.23-0.662-0.23h-3.541c-0.64,0-1.158-0.519-1.158-1.158
		S-32.391,188.169-31.751,188.169z"/>
</g>
<g>
	<path fill="#00B5FC" d="M27.457,186.03c1.065-0.355,2.475-0.532,4.232-0.532c1.756,0,3.036,0.388,3.839,1.163
		c0.803,0.775,1.205,1.938,1.205,3.488v11.8h-3.195v-1.178c-0.729,0.841-1.751,1.262-3.069,1.262s-2.284-0.327-2.901-0.981
		c-0.617-0.653-0.925-1.653-0.925-2.999v-0.952c0-1.14,0.271-2.036,0.813-2.691c0.542-0.653,1.419-1.148,2.634-1.484L33.482,192
		v-1.878c-0.019-0.579-0.187-0.999-0.504-1.262c-0.318-0.262-1.046-0.393-2.186-0.393c-1.14,0-2.252,0.196-3.335,0.589V186.03z
		 M29.951,197.24v0.813c0,0.953,0.495,1.43,1.485,1.43c0.766,0,1.438-0.205,2.018-0.616v-4.092l-1.99,0.561
		c-0.617,0.168-1.023,0.383-1.219,0.645C30.049,196.241,29.951,196.661,29.951,197.24z"/>
	<path fill="#00B5FC" d="M38.445,181.294h3.391v20.655h-3.391V181.294z"/>
	<path fill="#00B5FC" d="M44.275,181.294h3.391v20.655h-3.391V181.294z"/>
</g>
</svg>
